<svg width="15" height="18" viewBox="0 0 15 18" fill="none" xmlns="http://www.w3.org/2000/svg">
<path d="M0.155623 18V0.0703355H7.92981C9.29555 0.0703355 10.4424 0.254185 11.3704 0.621883C12.3043 0.989581 13.0076 1.50903 13.4803 2.18022C13.9589 2.85142 14.1982 3.64226 14.1982 4.55275C14.1982 5.21227 14.0523 5.81343 13.7605 6.35622C13.4745 6.89902 13.0718 7.35426 12.5523 7.72196C12.0329 8.08382 11.4259 8.33479 10.7313 8.47487V8.64996C11.5017 8.67914 12.2021 8.87466 12.8325 9.23653C13.4628 9.59255 13.9647 10.0857 14.3383 10.7161C14.7118 11.3406 14.8986 12.076 14.8986 12.9223C14.8986 13.9028 14.6418 14.7753 14.1282 15.5399C13.6204 16.3045 12.8967 16.9057 11.957 17.3434C11.0173 17.7811 9.89671 18 8.59517 18H0.155623ZM5.02325 14.1129H7.29947C8.11658 14.1129 8.72941 13.9612 9.13796 13.6577C9.54652 13.3483 9.75079 12.8931 9.75079 12.2919C9.75079 11.8717 9.65449 11.5157 9.46189 11.2238C9.26929 10.932 8.99497 10.7102 8.63895 10.5585C8.28876 10.4067 7.86561 10.3309 7.36951 10.3309H5.02325V14.1129ZM5.02325 7.31924H7.01932C7.44539 7.31924 7.82184 7.25212 8.14868 7.11788C8.47552 6.98365 8.72941 6.79104 8.91034 6.54007C9.09711 6.28327 9.19049 5.97102 9.19049 5.60332C9.19049 5.04885 8.99205 4.62571 8.59517 4.33388C8.19829 4.03622 7.69635 3.88739 7.08936 3.88739H5.02325V7.31924Z" fill="black"/>
</svg>
